<?xml version="1.0" encoding="UTF-8"?>
<!DOCTYPE svg PUBLIC "-//W3C//DTD SVG 1.1//EN" "http://www.w3.org/Graphics/SVG/1.1/DTD/svg11.dtd">
<svg xmlns="http://www.w3.org/2000/svg" version="1.1" width="31px" height="30px" style="shape-rendering:geometricPrecision; text-rendering:geometricPrecision; image-rendering:optimizeQuality; fill-rule:evenodd; clip-rule:evenodd" xmlns:xlink="http://www.w3.org/1999/xlink">
<g><path style="opacity:0.804" fill="#a5a5a5" d="M 5.5,2.5 C 12.5,2.5 19.5,2.5 26.5,2.5C 26.6663,9.8409 26.4997,17.1742 26,24.5C 25.5,25 25,25.5 24.5,26C 17.8333,26.6667 11.1667,26.6667 4.5,26C 2.84464,24.5557 2.17798,22.7224 2.5,20.5C 3.5,20.5 4.5,20.5 5.5,20.5C 5.5,14.5 5.5,8.5 5.5,2.5 Z M 8.5,4.5 C 13.5,4.5 18.5,4.5 23.5,4.5C 23.7904,10.561 23.4571,16.561 22.5,22.5C 20.7305,23.6265 19.3972,23.1265 18.5,21C 15.1832,20.5017 11.8499,20.335 8.5,20.5C 8.5,15.1667 8.5,9.83333 8.5,4.5 Z"/></g>
<g><path style="opacity:0.668" fill="#a5a5a5" d="M 10.5,7.5 C 11.675,7.28099 12.675,7.61432 13.5,8.5C 11.9483,9.79789 10.9483,9.46455 10.5,7.5 Z"/></g>
<g><path style="opacity:0.858" fill="#a5a5a5" d="M 14.5,7.5 C 16.924,7.19244 19.2573,7.52577 21.5,8.5C 20.3333,8.83333 19.1667,9.16667 18,9.5C 16.3189,9.39174 15.1522,8.72507 14.5,7.5 Z"/></g>
<g><path style="opacity:0.668" fill="#a5a5a5" d="M 10.5,11.5 C 11.675,11.281 12.675,11.6143 13.5,12.5C 11.9483,13.7979 10.9483,13.4646 10.5,11.5 Z"/></g>
<g><path style="opacity:0.858" fill="#a5a5a5" d="M 14.5,11.5 C 16.924,11.1924 19.2573,11.5258 21.5,12.5C 20.3333,12.8333 19.1667,13.1667 18,13.5C 16.3189,13.3917 15.1522,12.7251 14.5,11.5 Z"/></g>
<g><path style="opacity:0.668" fill="#a5a5a5" d="M 10.5,15.5 C 11.675,15.281 12.675,15.6143 13.5,16.5C 11.9483,17.7979 10.9483,17.4646 10.5,15.5 Z"/></g>
<g><path style="opacity:0.858" fill="#a5a5a5" d="M 14.5,15.5 C 16.924,15.1924 19.2573,15.5258 21.5,16.5C 20.3333,16.8333 19.1667,17.1667 18,17.5C 16.3189,17.3917 15.1522,16.7251 14.5,15.5 Z"/></g>
</svg>
