<?xml version="1.0" encoding="UTF-8"?>
<!DOCTYPE svg PUBLIC "-//W3C//DTD SVG 1.1//EN" "http://www.w3.org/Graphics/SVG/1.1/DTD/svg11.dtd">
<svg xmlns="http://www.w3.org/2000/svg" version="1.1" width="30px" height="30px" style="shape-rendering:geometricPrecision; text-rendering:geometricPrecision; image-rendering:optimizeQuality; fill-rule:evenodd; clip-rule:evenodd" xmlns:xlink="http://www.w3.org/1999/xlink">
<g><path style="opacity:0.952" fill="#a5a5a5" d="M 12.5,1.5 C 15.4206,1.14591 17.7539,2.14591 19.5,4.5C 20.7362,3.75415 22.0695,3.42082 23.5,3.5C 23.3717,6.51296 24.3717,9.01296 26.5,11C 24.6851,15.6341 24.0184,20.4674 24.5,25.5C 17.8333,25.5 11.1667,25.5 4.5,25.5C 4.98156,20.4674 4.3149,15.6341 2.5,11C 5.66415,7.66954 8.99748,4.50288 12.5,1.5 Z M 9.5,14.5 C 12.8984,14.1796 16.2317,14.513 19.5,15.5C 17.8333,15.8333 16.1667,16.1667 14.5,16.5C 12.3603,16.4439 10.6936,15.7773 9.5,14.5 Z M 9.5,18.5 C 12.8984,18.1796 16.2317,18.513 19.5,19.5C 17.8333,19.8333 16.1667,20.1667 14.5,20.5C 12.3603,20.4439 10.6936,19.7773 9.5,18.5 Z"/></g>
</svg>
