<?xml version="1.0" encoding="UTF-8"?>
<!DOCTYPE svg PUBLIC "-//W3C//DTD SVG 1.1//EN" "http://www.w3.org/Graphics/SVG/1.1/DTD/svg11.dtd">
<svg xmlns="http://www.w3.org/2000/svg" version="1.1" width="30px" height="30px" style="shape-rendering:geometricPrecision; text-rendering:geometricPrecision; image-rendering:optimizeQuality; fill-rule:evenodd; clip-rule:evenodd" xmlns:xlink="http://www.w3.org/1999/xlink">
<g><path style="opacity:0.858" fill="#a6a6a6" d="M 9.5,2.5 C 22.3202,1.15271 27.8202,6.81938 26,19.5C 22.3449,26.0702 16.8449,28.2368 9.5,26C 2.92982,22.3449 0.763151,16.8449 3,9.5C 4.69406,6.64238 6.86073,4.30904 9.5,2.5 Z M 12.5,8.5 C 14.1439,8.28649 15.6439,8.61983 17,9.5C 17.5426,12.1698 17.0426,14.6698 15.5,17C 16.3767,18.8673 17.8767,20.034 20,20.5C 20.4561,21.7441 19.9561,22.5774 18.5,23C 14.8823,23.966 11.549,23.466 8.5,21.5C 10.4374,20.2557 12.1041,18.7557 13.5,17C 11.5973,14.2634 11.2639,11.4301 12.5,8.5 Z"/></g>
</svg>
