<?xml version="1.0" encoding="UTF-8"?>
<!DOCTYPE svg PUBLIC "-//W3C//DTD SVG 1.1//EN" "http://www.w3.org/Graphics/SVG/1.1/DTD/svg11.dtd">
<svg xmlns="http://www.w3.org/2000/svg" version="1.1" width="30px" height="30px" style="shape-rendering:geometricPrecision; text-rendering:geometricPrecision; image-rendering:optimizeQuality; fill-rule:evenodd; clip-rule:evenodd" xmlns:xlink="http://www.w3.org/1999/xlink">
<g><path style="opacity:0.943" fill="#b6b6b6" d="M 19.5,-0.5 C 20.1667,-0.5 20.8333,-0.5 21.5,-0.5C 20.8333,6.16667 20.1667,6.16667 19.5,-0.5 Z"/></g>
<g><path style="opacity:0.924" fill="#b6b6b6" d="M 23.5,0.5 C 24.5862,0.619985 25.2528,1.28665 25.5,2.5C 25.1667,3.16667 24.8333,3.83333 24.5,4.5C 23.5713,3.31116 23.238,1.97782 23.5,0.5 Z"/></g>
<g><path style="opacity:0.886" fill="#b6b6b6" d="M 15.5,1.5 C 17.4646,1.94835 17.7979,2.94835 16.5,4.5C 15.6143,3.67504 15.281,2.67504 15.5,1.5 Z"/></g>
<g><path style="opacity:0.908" fill="#b7b7b7" d="M 29.5,22.5 C 29.5,23.1667 29.5,23.8333 29.5,24.5C 19.5,24.5 9.5,24.5 -0.5,24.5C -0.5,23.8333 -0.5,23.1667 -0.5,22.5C 1.19919,22.6602 2.86586,22.4935 4.5,22C 1.97706,20.4369 0.31039,18.2702 -0.5,15.5C -0.5,14.8333 -0.5,14.1667 -0.5,13.5C 1.07886,11.7698 2.74552,9.93642 4.5,8C 6.5,7.5 8.5,7 10.5,6.5C 11.9317,6.73321 12.4317,7.39988 12,8.5C 9.37329,9.78263 6.87329,11.2826 4.5,13C 7.48162,13.498 10.4816,13.6646 13.5,13.5C 13.5,11.1667 13.5,8.83333 13.5,6.5C 18.1667,6.5 22.8333,6.5 27.5,6.5C 27.5258,11.7948 26.8591,16.9615 25.5,22C 26.7932,22.49 28.1266,22.6567 29.5,22.5 Z"/></g>
</svg>
